<?xml version="1.0" encoding="UTF-8"?>
<svg width="819px" height="195px" viewBox="0 0 819 195" version="1.1" xmlns="http://www.w3.org/2000/svg" xmlns:xlink="http://www.w3.org/1999/xlink">
    <!-- Generator: Sketch 49.3 (51167) - http://www.bohemiancoding.com/sketch -->
    <title>Page 1</title>
    <desc>Created with Sketch.</desc>
    <defs>
        <polygon id="path-1" points="0.0004 0.7838 818.939 0.7838 818.939 194.9998 0.0004 194.9998"></polygon>
        <polygon id="path-3" points="0 195.217 818.939 195.217 818.939 1 0 1"></polygon>
    </defs>
    <g id="Page-1" stroke="none" stroke-width="1" fill="none" fill-rule="evenodd">
        <g transform="translate(0.000000, -1.000000)">
            <g id="Group-3" transform="translate(0.000000, 0.217000)">
                <mask id="mask-2" fill="white">
                    <use xlink:href="#path-1"></use>
                </mask>
                <g id="Clip-2"></g>
                <path d="M792.7364,194.9998 L26.2034,194.9998 C11.7314,194.9998 0.0004,183.2688 0.0004,168.7968 L0.0004,26.9868 C0.0004,12.5148 11.7314,0.7838 26.2034,0.7838 L792.7364,0.7838 C807.2084,0.7838 818.9394,12.5148 818.9394,26.9868 L818.9394,168.7968 C818.9394,183.2688 807.2084,194.9998 792.7364,194.9998" id="Fill-1" fill="#F17F31" mask="url(#mask-2)"></path>
            </g>
            <path d="M181.7129,86.9107 L175.1349,94.7017 C172.1969,91.1247 167.8559,88.8897 163.8969,88.8897 C156.8079,88.8897 151.4429,94.5097 151.4429,101.8527 C151.4429,109.3247 156.8079,115.0077 163.8969,115.0077 C167.6639,115.0077 172.0059,112.9647 175.1349,109.7717 L181.7759,116.7957 C176.9869,121.7127 169.8989,124.9697 163.3209,124.9697 C149.8479,124.9697 139.8209,115.0717 139.8209,101.9807 C139.8209,89.0817 150.1029,79.3747 163.7039,79.3747 C170.3459,79.3747 177.2419,82.3127 181.7129,86.9107" id="Fill-4" fill="#D66C25"></path>
            <polygon id="Fill-6" fill="#D66C25" points="217.2774 114.9444 217.2774 124.4594 186.9444 124.4594 186.9444 79.7584 198.3114 79.7584 198.3114 114.9444"></polygon>
            <path d="M242.8809,91.0611 L236.3669,107.6011 L249.2669,107.6011 L242.8809,91.0611 Z M233.0459,116.2211 L229.7899,124.4591 L218.1039,124.4591 L237.3889,79.7581 L249.0739,79.7581 L267.9129,124.4591 L255.7799,124.4591 L252.5869,116.2211 L233.0459,116.2211 Z" id="Fill-8" fill="#D66C25"></path>
            <mask id="mask-4" fill="white">
                <use xlink:href="#path-3"></use>
            </mask>
            <g id="Clip-11"></g>
            <polygon id="Fill-10" fill="#D66C25" mask="url(#mask-4)" points="272.059 124.459 283.426 124.459 283.426 79.758 272.059 79.758"></polygon>
            <polygon id="Fill-12" fill="#D66C25" mask="url(#mask-4)" points="331.4444 124.459 331.3814 95.404 320.6524 119.989 313.2454 119.989 302.5164 95.404 302.5164 124.459 292.3634 124.459 292.3634 79.694 304.8164 79.694 316.9494 106.323 329.0824 79.694 341.4704 79.694 341.4704 124.459"></polygon>
            <polygon id="Fill-13" fill="#D66C25" mask="url(#mask-4)" points="385.9727 88.8902 385.9727 124.4592 374.6057 124.4592 374.6057 88.8902 361.2597 88.8902 361.2597 79.6942 399.4467 79.6942 399.4467 88.8902"></polygon>
            <polygon id="Fill-14" fill="#D66C25" mask="url(#mask-4)" points="434.1817 124.459 434.1817 107.09 415.6627 107.09 415.6627 124.459 404.2957 124.459 404.2957 79.758 415.6627 79.758 415.6627 98.149 434.1817 98.149 434.1817 79.758 445.5487 79.758 445.5487 124.459"></polygon>
            <polygon id="Fill-15" fill="#D66C25" mask="url(#mask-4)" points="454.484 124.459 465.851 124.459 465.851 79.758 454.484 79.758"></polygon>
            <path d="M509.5918,84.2286 L505.3138,93.1046 C500.5878,90.3586 494.6498,88.4426 491.0098,88.4426 C488.0718,88.4426 486.0918,89.5286 486.0918,91.6996 C486.0918,99.4266 509.7198,95.0206 509.7198,111.1766 C509.7198,120.1166 501.8018,124.8426 491.8398,124.8426 C484.3678,124.8426 476.7048,122.0326 471.4048,117.6896 L475.8118,108.9416 C480.4088,112.9646 487.3058,115.6466 491.9668,115.6466 C495.5428,115.6466 497.7788,114.3056 497.7788,111.7516 C497.7788,103.8326 474.1508,108.5586 474.1508,92.7216 C474.1508,84.4836 481.2388,79.2476 491.9668,79.2476 C498.4168,79.2476 504.9938,81.2276 509.5918,84.2286" id="Fill-16" fill="#D66C25" mask="url(#mask-4)"></path>
            <polygon id="Fill-17" fill="#D66C25" mask="url(#mask-4)" points="569.294 124.459 560.992 93.552 552.564 124.459 540.814 124.459 526.19 79.758 538.323 79.758 547.071 112.645 555.629 79.758 566.74 79.758 575.488 112.645 584.109 79.758 595.731 79.758 580.981 124.459"></polygon>
            <polygon id="Fill-18" fill="#D66C25" mask="url(#mask-4)" points="599.748 124.459 611.115 124.459 611.115 79.758 599.748 79.758"></polygon>
            <polygon id="Fill-19" fill="#D66C25" mask="url(#mask-4)" points="637.3585 106.898 631.4205 113.476 631.4205 124.459 620.0525 124.459 620.0525 79.758 631.4205 79.758 631.4205 99.107 648.5345 79.758 661.6885 79.758 645.0855 98.277 662.7745 124.459 649.1715 124.459"></polygon>
            <polygon id="Fill-20" fill="#D66C25" mask="url(#mask-4)" points="667.751 124.459 679.118 124.459 679.118 79.758 667.751 79.758"></polygon>
            <path d="M181.7129,82.9107 L175.1349,90.7017 C172.1969,87.1247 167.8559,84.8897 163.8969,84.8897 C156.8079,84.8897 151.4429,90.5097 151.4429,97.8527 C151.4429,105.3247 156.8079,111.0077 163.8969,111.0077 C167.6639,111.0077 172.0059,108.9647 175.1349,105.7717 L181.7759,112.7957 C176.9869,117.7127 169.8989,120.9697 163.3209,120.9697 C149.8479,120.9697 139.8209,111.0717 139.8209,97.9807 C139.8209,85.0817 150.1029,75.3747 163.7039,75.3747 C170.3459,75.3747 177.2419,78.3127 181.7129,82.9107" id="Fill-21" fill="#FFFFFF" mask="url(#mask-4)"></path>
            <polygon id="Fill-22" fill="#FFFFFF" mask="url(#mask-4)" points="217.2774 110.9444 217.2774 120.4594 186.9444 120.4594 186.9444 75.7584 198.3114 75.7584 198.3114 110.9444"></polygon>
            <path d="M242.8809,87.0611 L236.3669,103.6011 L249.2669,103.6011 L242.8809,87.0611 Z M233.0459,112.2211 L229.7899,120.4591 L218.1039,120.4591 L237.3889,75.7581 L249.0739,75.7581 L267.9129,120.4591 L255.7799,120.4591 L252.5869,112.2211 L233.0459,112.2211 Z" id="Fill-23" fill="#FFFFFF" mask="url(#mask-4)"></path>
            <polygon id="Fill-24" fill="#FFFFFF" mask="url(#mask-4)" points="272.059 120.459 283.426 120.459 283.426 75.758 272.059 75.758"></polygon>
            <polygon id="Fill-25" fill="#FFFFFF" mask="url(#mask-4)" points="331.4444 120.459 331.3814 91.404 320.6524 115.989 313.2454 115.989 302.5164 91.404 302.5164 120.459 292.3634 120.459 292.3634 75.694 304.8164 75.694 316.9494 102.323 329.0824 75.694 341.4704 75.694 341.4704 120.459"></polygon>
            <polygon id="Fill-26" fill="#FFFFFF" mask="url(#mask-4)" points="385.9727 84.8902 385.9727 120.4592 374.6057 120.4592 374.6057 84.8902 361.2597 84.8902 361.2597 75.6942 399.4467 75.6942 399.4467 84.8902"></polygon>
            <polygon id="Fill-27" fill="#FFFFFF" mask="url(#mask-4)" points="434.1817 120.459 434.1817 103.09 415.6627 103.09 415.6627 120.459 404.2957 120.459 404.2957 75.758 415.6627 75.758 415.6627 94.149 434.1817 94.149 434.1817 75.758 445.5487 75.758 445.5487 120.459"></polygon>
            <polygon id="Fill-28" fill="#FFFFFF" mask="url(#mask-4)" points="454.484 120.459 465.851 120.459 465.851 75.758 454.484 75.758"></polygon>
            <path d="M509.5918,80.2286 L505.3138,89.1046 C500.5878,86.3586 494.6498,84.4426 491.0098,84.4426 C488.0718,84.4426 486.0918,85.5286 486.0918,87.6996 C486.0918,95.4266 509.7198,91.0206 509.7198,107.1766 C509.7198,116.1166 501.8018,120.8426 491.8398,120.8426 C484.3678,120.8426 476.7048,118.0326 471.4048,113.6896 L475.8118,104.9416 C480.4088,108.9646 487.3058,111.6466 491.9668,111.6466 C495.5428,111.6466 497.7788,110.3056 497.7788,107.7516 C497.7788,99.8326 474.1508,104.5586 474.1508,88.7216 C474.1508,80.4836 481.2388,75.2476 491.9668,75.2476 C498.4168,75.2476 504.9938,77.2276 509.5918,80.2286" id="Fill-29" fill="#FFFFFF" mask="url(#mask-4)"></path>
            <polygon id="Fill-30" fill="#FFFFFF" mask="url(#mask-4)" points="569.294 120.459 560.992 89.552 552.564 120.459 540.814 120.459 526.19 75.758 538.323 75.758 547.071 108.645 555.629 75.758 566.74 75.758 575.488 108.645 584.109 75.758 595.731 75.758 580.981 120.459"></polygon>
            <polygon id="Fill-31" fill="#FFFFFF" mask="url(#mask-4)" points="599.748 120.459 611.115 120.459 611.115 75.758 599.748 75.758"></polygon>
            <polygon id="Fill-32" fill="#FFFFFF" mask="url(#mask-4)" points="637.3585 102.898 631.4205 109.476 631.4205 120.459 620.0525 120.459 620.0525 75.758 631.4205 75.758 631.4205 95.107 648.5345 75.758 661.6885 75.758 645.0855 94.277 662.7745 120.459 649.1715 120.459"></polygon>
            <polygon id="Fill-33" fill="#FFFFFF" mask="url(#mask-4)" points="667.751 120.459 679.118 120.459 679.118 75.758 667.751 75.758"></polygon>
        </g>
    </g>
</svg>